<svg width="352" height="186" xmlns="http://www.w3.org/2000/svg">
 <style type="text/css">.st0{fill:#21B685;}
	.st1{fill:#C9D143;}
	.st2{fill:url(#SVGID_1_);}
	.st3{fill:url(#SVGID_2_);}
	.st4{fill:url(#SVGID_3_);}
	.st5{fill:url(#SVGID_4_);}
	.st6{fill:#FFFFFF;}
	.st7{fill:#58595B;}
	.st8{fill:#6D6E71;}
	.st9{fill:url(#SVGID_5_);}
	.st10{fill:url(#SVGID_6_);}</style>

 <g>
  <title>background</title>
  <rect fill="none" id="canvas_background" height="188" width="354" y="-1" x="-1"/>
 </g>
 <g>
  <title>Layer 1</title>
  <g id="svg_92" stroke="null">
   <g id="svg_93" stroke="null">
    <g id="svg_94" stroke="null">
     <path id="svg_95" d="m245.04115,17.45404l0,22.22322c0,1.10819 -0.9028,1.9987 -2.02629,1.9987l-4.33346,0c-1.12349,0 -2.02629,-0.89051 -2.02629,-1.9987l0,-20.85777c0,-7.3022 -3.81184,-11.06214 -9.38916,-11.06214c-6.0187,0 -10.29197,4.43277 -10.29197,11.27982l0,20.64009c0,1.10819 -0.9028,1.9987 -2.02629,1.9987l-4.33346,0c-1.12349,0 -2.02629,-0.89051 -2.02629,-1.9987l0,-20.71925c0,-7.06473 -3.65134,-11.20066 -9.44935,-11.20066c-5.95851,0 -10.37222,4.35361 -10.37222,11.43813l0,20.48178c0,1.10819 -0.9028,1.9987 -2.02629,1.9987l-4.33346,0c-1.12349,0 -2.02629,-0.89051 -2.02629,-1.9987l0,-36.53078c0,-1.10819 0.9028,-1.9987 2.02629,-1.9987l4.17296,0c1.12349,0 2.02629,0.89051 2.02629,1.9987l0,3.85889c2.36735,-4.21509 7.02181,-7.00536 12.43864,-7.00536c5.19614,0.07916 10.29197,2.5528 12.65932,7.44072c2.82879,-4.51193 8.54655,-7.44072 14.86618,-7.44072c9.75029,0 16.47116,6.55021 16.47116,17.45404l-0.00002,-0.00001z" class="st6" stroke="null"/>
    </g>
    <g id="svg_96" stroke="null">
     <path id="svg_97" d="m223.25347,80.22524c-1.00312,10.36952 -9.6901,18.77991 -20.26294,18.83928c-6.15913,0.03958 -10.87378,-2.59238 -14.18406,-6.62937l0,20.34325c0,1.10819 -0.9028,1.9987 -2.02629,1.9987l-4.33346,0c-1.12349,0 -2.02629,-0.89051 -2.02629,-1.9987l0,-53.23283c0,-1.10819 0.9028,-1.9987 2.02629,-1.9987l4.33346,0c1.12349,0 2.02629,0.89051 2.02629,1.9987l0,3.85889c3.35041,-4.05678 8.08511,-6.84705 14.10381,-6.84705c12.6192,0 21.58705,10.7653 20.34319,23.66783zm-8.34592,-2.45386c0,-7.44072 -5.19614,-13.61494 -13.20101,-13.61494c-8.00486,0 -13.12076,6.23358 -13.12076,13.61494c0,7.51988 5.11589,13.6941 13.12076,13.6941c8.00486,0 13.20101,-6.17422 13.20101,-13.6941z" class="st6" stroke="null"/>
    </g>
    <g id="svg_98" stroke="null">
     <path id="svg_99" d="m275.7365,59.54557l0,36.53078c0,1.10819 -0.9028,1.9987 -2.02629,1.9987l-4.03253,0c-1.12349,0 -2.02629,-0.89051 -2.02629,-1.9987l0,-3.56205c-3.35041,3.91825 -8.00486,6.55021 -14.02356,6.55021c-11.89695,0 -20.52375,-9.39985 -20.52375,-21.51081c0,-12.11096 8.70705,-20.9963 20.52375,-20.9963c6.0187,0 10.67315,2.71111 14.02356,6.62937l0,-3.6412c0,-1.10819 0.9028,-1.9987 2.02629,-1.9987l4.03253,0c1.12349,-0.01979 2.02629,0.89051 2.02629,1.9987zm-7.70393,18.22581c0,-7.38136 -5.33658,-13.61494 -13.26119,-13.61494c-8.08511,0 -13.20101,6.23358 -13.20101,13.6941c0,7.44072 5.19614,13.61494 13.20101,13.61494c7.92462,0 13.26119,-6.25337 13.26119,-13.6941z" class="st6" stroke="null"/>
    </g>
    <g id="svg_100" stroke="null">
     <path id="svg_101" d="m292.38822,57.52708l3.93221,0c1.12349,0 2.02629,0.89051 2.02629,1.9987l0,3.77973c2.52785,-4.67024 6.39988,-6.84705 11.67627,-6.84705c0.92287,0 1.94604,0.05937 3.02941,0.23747c1.04324,0.1781 1.78555,1.12798 1.68523,2.17681l-0.38118,3.97762c-0.12037,1.18735 -1.24386,1.97892 -2.4476,1.78102c-0.78243,-0.13852 -1.5448,-0.19789 -2.2871,-0.19789c-5.95851,0 -10.9139,3.8391 -10.9139,12.86295l0,18.76012c0,1.10819 -0.9028,1.9987 -2.02629,1.9987l-4.33346,0c-1.12349,0 -2.02629,-0.89051 -2.02629,-1.9987l0,-36.51099c0.04012,-1.10819 0.94293,-2.01849 2.06642,-2.01849l-0.00001,0z" class="st6" stroke="null"/>
    </g>
    <g id="svg_102" stroke="null">
     <path id="svg_103" d="m204.43502,177.15253c0.42131,0.94988 0.04012,2.07786 -0.88274,2.59238c-2.84885,1.58313 -6.39988,2.3747 -9.77035,2.3747c-9.08823,0 -13.50194,-5.63991 -13.50194,-15.49491l0,-18.95801l-5.0557,0c-1.12349,0 -2.02629,-0.89051 -2.02629,-1.9987l0,-3.06732c0,-1.10819 0.9028,-1.9987 2.02629,-1.9987l5.13595,0l0,-12.36822c0,-1.10819 0.9028,-1.9987 2.02629,-1.9987l4.25321,0c1.12349,0 2.02629,0.89051 2.02629,1.9987l0,12.36822l12.15776,0c1.12349,0 2.02629,0.89051 2.02629,1.9987l0,3.06732c0,1.10819 -0.9028,1.9987 -2.02629,1.9987l-12.15776,0l0,19.11633c0,4.88792 1.74542,7.75735 6.31963,7.75735c1.94604,0 3.71153,-0.51452 5.39676,-1.2863c1.04324,-0.47494 2.26704,-0.03958 2.72848,0.98946l1.32411,2.90901l0.00001,-0.00001z" class="st6" stroke="null"/>
    </g>
    <g id="svg_104" stroke="null">
     <path id="svg_105" d="m213.20225,129.5794c0,-3.16627 2.52785,-5.4816 5.71776,-5.4816s5.63751,2.33512 5.63751,5.4816c0,3.24542 -2.4476,5.63991 -5.63751,5.63991s-5.71776,-2.39449 -5.71776,-5.63991zm1.44449,49.53226l0,-36.53078c0,-1.10819 0.9028,-1.9987 2.02629,-1.9987l4.33346,0c1.12349,0 2.02629,0.89051 2.02629,1.9987l0,36.53078c0,1.10819 -0.9028,1.9987 -2.02629,1.9987l-4.33346,0c-1.10343,0.01979 -2.02629,-0.89051 -2.02629,-1.9987z" class="st6" stroke="null"/>
    </g>
    <g id="svg_106" stroke="null">
     <path id="svg_107" d="m237.67828,179.11166l0,-53.01515c0,-1.10819 0.9028,-1.9987 2.02629,-1.9987l4.33346,0c1.12349,0 2.02629,0.89051 2.02629,1.9987l0,53.01515c0,1.10819 -0.9028,1.9987 -2.02629,1.9987l-4.33346,0c-1.12349,0.01979 -2.02629,-0.89051 -2.02629,-1.9987z" class="st6" stroke="null"/>
    </g>
    <g id="svg_108" stroke="null">
     <path id="svg_109" d="m262.73611,124.0978l4.09271,0c1.12349,0 2.02629,0.89051 2.02629,1.9987l0,19.59127c2.36735,-3.54226 7.10206,-6.17422 13.04051,-6.17422c8.38605,0 16.08998,5.42223 16.08998,16.91973l0,22.67837c0,1.10819 -0.9028,1.9987 -2.02629,1.9987l-4.33346,0c-1.12349,0 -2.02629,-0.89051 -2.02629,-1.9987l0,-20.34325c0,-7.67819 -4.11278,-11.57666 -9.83054,-11.57666c-6.33969,0 -10.67315,4.7494 -10.67315,11.65581l0,20.2641c0,1.10819 -0.9028,1.9987 -2.02629,1.9987l-4.33346,0c-1.12349,0 -2.02629,-0.89051 -2.02629,-1.9987l0,-53.01515c-0.02006,-1.10819 0.9028,-1.9987 2.02629,-1.9987l-0.00001,0z" class="st6" stroke="null"/>
    </g>
    <g id="svg_110" stroke="null">
     <path id="svg_111" d="m348.7834,164.05211l-27.60575,0c-1.44449,0 -2.42754,1.44461 -1.88586,2.77048c1.78555,4.47235 5.77795,7.83651 12.83988,7.83651c4.03253,0 8.70705,-1.32587 12.25808,-3.30479c0.98305,-0.53431 2.20685,-0.19789 2.74854,0.75199l1.5448,2.69133c0.54168,0.93009 0.26081,2.09765 -0.66206,2.67154c-3.87203,2.43407 -9.75029,4.55151 -16.19029,4.55151c-15.48811,0 -22.04849,-10.60699 -22.04849,-21.29313c0,-12.03181 8.38605,-21.13482 20.98518,-21.13482c11.51577,0 20.14257,7.59904 20.14257,20.46199c0,0.79157 -0.04012,1.48419 -0.08025,2.11744c-0.10031,1.04883 -0.98305,1.87997 -2.04636,1.87997l0.00001,-0.00002zm-27.60575,-6.76789l18.77833,0c1.32411,0 2.34729,-1.24672 1.96611,-2.51322c-1.52474,-4.98687 -5.83813,-8.0344 -11.17471,-8.0344c-5.39676,0 -9.54966,3.04753 -11.45558,7.73756c-0.52162,1.32587 0.44137,2.81006 1.88586,2.81006l-0.00001,0z" class="st6" stroke="null"/>
    </g>
    <g id="svg_112" stroke="null">
     <g id="svg_113" stroke="null">
      <g id="svg_114" stroke="null">
       <path id="svg_115" d="m75.25375,21.49102c0,-12.4078 9.06817,-21.27334 22.02842,-21.27334c7.403,0 14.24425,3.34437 17.89559,9.04364c0.60187,0.93009 0.30093,2.17681 -0.68212,2.71111l-3.71153,2.03828c-0.82256,0.45515 -1.88586,0.25726 -2.46767,-0.49473c-3.10966,-4.17551 -8.18543,-6.58979 -13.80287,-5.42223c-5.97857,1.24672 -10.47253,6.53042 -10.79353,12.56611c-0.42131,7.97503 5.33658,14.34714 13.32138,14.34714c4.27327,0 8.60673,-2.25596 11.05434,-5.4816c0.58181,-0.77178 1.66517,-1.00925 2.50779,-0.51452l3.65134,2.09765c0.98305,0.5541 1.26393,1.84039 0.62193,2.75069c-3.71153,5.32328 -10.45247,8.74681 -17.89559,8.74681c-12.71951,0.01979 -21.72749,-8.84575 -21.72749,-21.11503l0.00001,0.00002z" class="st6" stroke="null"/>
      </g>
      <g id="svg_116" stroke="null">
       <path id="svg_117" d="m124.70737,21.43166c0,-11.65581 8.92773,-21.27334 21.72749,-21.27334c12.79976,0 21.72749,9.61753 21.72749,21.27334c0,11.81413 -8.92773,21.3525 -21.72749,21.3525c-12.79976,0 -21.72749,-9.55816 -21.72749,-21.3525zm34.98868,0c0,-7.36157 -5.79801,-13.61494 -13.26119,-13.61494c-7.48324,0 -13.26119,6.23358 -13.26119,13.61494c0,7.51988 5.79801,13.61494 13.26119,13.61494c7.46318,-0.01979 13.26119,-6.09506 13.26119,-13.61494z" class="st6" stroke="null"/>
      </g>
     </g>
     <path id="svg_118" d="m162.90602,56.5772l-82.39594,0c-2.90904,0 -5.25633,2.31533 -5.25633,5.18476c0,25.27075 20.84475,45.83169 46.46433,45.83169s46.46433,-20.56093 46.46433,-45.83169c-0.02006,-2.84964 -2.38742,-5.18476 -5.27639,-5.18476zm-5.55726,11.04235l-0.08025,0.59367c-2.56798,17.25614 -17.85546,30.27741 -35.55043,30.27741c-17.69496,0 -32.98245,-13.02127 -35.55043,-30.27741l-0.08025,-0.59367c-0.14044,-1.00925 0.64199,-1.89976 1.66517,-1.89976l67.97113,0c0.98305,0 1.76548,0.89051 1.62505,1.89976l0.00001,0z" class="st6" stroke="null"/>
    </g>
   </g>
   <g id="svg_119" stroke="null">
    <path id="svg_120" d="m15.50817,148.0031c0,4.1953 -3.04947,7.57925 -7.26256,7.57925c-2.08648,0 -3.61122,-0.9103 -4.71464,-2.15702l0,7.73756l-3.53097,0l0,-20.38283l3.51091,0l0,1.91955c1.10343,-1.30608 2.66829,-2.25596 4.77483,-2.25596c4.21309,0.01979 7.22243,3.38395 7.22243,7.55946l0,-0.00001zm-3.53097,0.03958c0,-2.41428 -1.7053,-4.39319 -4.25321,-4.39319c-2.58804,0 -4.25321,1.9987 -4.25321,4.39319c0,2.41428 1.66517,4.39319 4.25321,4.39319c2.56798,-0.01979 4.25321,-1.97892 4.25321,-4.39319z" class="st6" stroke="null"/>
    <path id="svg_121" d="m35.57049,140.79985l0,14.44608l-3.35041,0l0,-1.78102c-1.10343,1.22693 -2.66829,2.13723 -4.77483,2.13723c-4.23315,0 -7.26256,-3.34437 -7.26256,-7.63861c0,-4.33383 3.06953,-7.50009 7.26256,-7.50009c2.10654,0 3.63128,0.93009 4.77483,2.17681l0,-1.84039l3.35041,0l0,-0.00001zm-3.2501,7.20325c0,-2.39449 -1.74542,-4.39319 -4.3134,-4.39319c-2.58804,0 -4.29334,1.9987 -4.29334,4.39319c0,2.41428 1.72536,4.41298 4.29334,4.41298c2.54791,0 4.3134,-1.97892 4.3134,-4.41298z" class="st6" stroke="null"/>
    <path id="svg_122" d="m41.85,140.79985l3.37047,0l0,1.9987c0.92287,-1.62271 2.32723,-2.3747 4.07265,-2.3747c0.54168,0 1.16361,0.07916 1.74542,0.29684l-0.30093,3.32458c-0.56174,-0.1781 -1.16361,-0.29684 -1.7053,-0.29684c-2.02629,0 -3.69147,1.2863 -3.69147,4.45256l0,7.04494l-3.51091,0l0,-14.44608l0.02006,0l0.00001,0z" class="st6" stroke="null"/>
    <path id="svg_123" d="m69.73662,140.79985l0,14.44608l-3.35041,0l0,-1.78102c-1.10343,1.22693 -2.66829,2.13723 -4.77483,2.13723c-4.23315,0 -7.26256,-3.34437 -7.26256,-7.63861c0,-4.33383 3.06953,-7.50009 7.26256,-7.50009c2.10654,0 3.63128,0.93009 4.77483,2.17681l0,-1.84039l3.35041,0l0,-0.00001zm-3.2501,7.20325c0,-2.39449 -1.74542,-4.39319 -4.3134,-4.39319c-2.58804,0 -4.29334,1.9987 -4.29334,4.39319c0,2.41428 1.72536,4.41298 4.29334,4.41298s4.3134,-1.97892 4.3134,-4.41298z" class="st6" stroke="null"/>
    <path id="svg_124" d="m99.97053,135.02142l0,20.22452l-3.43066,0l0,-1.87997c-1.04324,1.26651 -2.56798,2.23617 -4.67452,2.23617c-4.17296,0 -7.28262,-3.26521 -7.28262,-7.57925c0,-4.25467 3.12972,-7.55946 7.26256,-7.55946c2.06642,0 3.55103,0.93009 4.61433,2.17681l0,-7.59904l3.51091,0l0,-0.01979l0,0.00001zm-3.31028,12.98169c0,-2.39449 -1.7053,-4.39319 -4.29334,-4.39319c-2.56798,0 -4.25321,1.9987 -4.25321,4.39319c0,2.45386 1.7053,4.41298 4.25321,4.41298c2.58804,0 4.29334,-1.95913 4.29334,-4.41298z" class="st6" stroke="null"/>
    <path id="svg_125" d="m105.44754,148.0031c0,-4.17551 3.18991,-7.57925 7.8243,-7.57925s7.8243,3.40373 7.8243,7.57925c0,4.1953 -3.18991,7.59904 -7.8243,7.59904s-7.8243,-3.38395 -7.8243,-7.59904zm12.11764,0c0,-2.39449 -1.8658,-4.3734 -4.29334,-4.3734s-4.29334,1.97892 -4.29334,4.3734c0,2.45386 1.8658,4.39319 4.29334,4.39319s4.29334,-1.93934 4.29334,-4.39319z" class="st6" stroke="null"/>
    <path id="svg_126" d="m141.11834,140.79985l0,14.44608l-3.35041,0l0,-1.78102c-1.10343,1.22693 -2.66829,2.13723 -4.77483,2.13723c-4.23315,0 -7.26256,-3.34437 -7.26256,-7.63861c0,-4.33383 3.06953,-7.50009 7.26256,-7.50009c2.10654,0 3.63128,0.93009 4.77483,2.17681l0,-1.84039l3.35041,0l0,-0.00001zm-3.2501,7.20325c0,-2.39449 -1.74542,-4.39319 -4.3134,-4.39319c-2.58804,0 -4.29334,1.9987 -4.29334,4.39319c0,2.41428 1.72536,4.41298 4.29334,4.41298s4.3134,-1.97892 4.3134,-4.41298z" class="st6" stroke="null"/>
    <path id="svg_127" d="m147.39785,140.79985l3.37047,0l0,1.9987c0.92287,-1.62271 2.32723,-2.3747 4.07265,-2.3747c0.54168,0 1.16361,0.07916 1.74542,0.29684l-0.30093,3.32458c-0.56174,-0.1781 -1.16361,-0.29684 -1.7053,-0.29684c-2.02629,0 -3.69147,1.2863 -3.69147,4.45256l0,7.04494l-3.51091,0l0,-14.44608l0.02006,0l0.00001,0z" class="st6" stroke="null"/>
    <path id="svg_128" d="m19.94194,183.96l-2.9291,-2.61217c-2.00623,1.76123 -4.05259,2.49343 -6.23938,2.49343c-3.9924,0 -6.74094,-2.57259 -6.74094,-5.77843c0,-2.84964 1.64511,-4.49214 3.57109,-5.63991c-0.72224,-1.0884 -1.16361,-2.31533 -1.16361,-3.72036c0,-2.63196 2.24698,-5.1056 5.55726,-5.1056c2.72848,0 4.95539,1.86018 4.95539,4.31404c0,2.81006 -2.50779,4.07657 -4.93533,5.26392c0.34106,0.31663 0.72224,0.67283 1.14355,1.00925l3.6714,3.18605c0.70218,-0.79157 1.3843,-1.76123 2.02629,-2.71111l2.20685,1.78102c-0.72224,1.0884 -1.42442,2.01849 -2.08648,2.81006l2.90904,2.5528l-1.94604,2.15702l0.00001,-0.00001zm-5.15602,-4.5713l-4.07265,-3.6412c-0.42131,-0.37599 -0.86268,-0.77178 -1.26393,-1.14777c-1.10343,0.79157 -1.92598,1.76123 -1.92598,3.22563c0,1.76123 1.40436,3.08711 3.51091,3.08711c1.44449,0 2.56798,-0.51452 3.75165,-1.52377zm-5.33658,-10.60699c0,0.87072 0.24075,1.62271 0.70218,2.33512c1.94604,-0.9103 3.63128,-1.6425 3.63128,-3.08711c0,-0.98946 -0.80249,-1.80081 -1.94604,-1.80081c-1.3843,0 -2.38742,1.0884 -2.38742,2.5528z" class="st6" stroke="null"/>
    <path id="svg_129" d="m35.81124,169.15771l3.37047,0l0,1.9987c0.92287,-1.62271 2.32723,-2.3747 4.07265,-2.3747c0.54168,0 1.16361,0.07916 1.74542,0.29684l-0.30093,3.32458c-0.56174,-0.1781 -1.16361,-0.29684 -1.7053,-0.29684c-2.02629,0 -3.69147,1.2863 -3.69147,4.45256l0,7.04494l-3.49084,0l0,-14.44608z" class="st6" stroke="null"/>
    <path id="svg_130" d="m63.07593,177.60768l-11.15465,0c0.42131,1.86018 1.80561,3.32458 4.4739,3.32458c1.64511,0 3.55103,-0.61346 4.83502,-1.48419l1.40436,2.47364c-1.3843,1.00925 -3.69147,1.9987 -6.35975,1.9987c-5.49708,0 -7.92462,-3.72036 -7.92462,-7.55946c0,-4.31404 3.04947,-7.55946 7.60362,-7.55946c4.13284,0 7.26256,2.69133 7.26256,7.26262c-0.02006,0.59367 -0.08025,1.06861 -0.14044,1.54355l0,0.00002zm-11.15465,-2.63196l7.8243,0c-0.30093,-2.01849 -1.80561,-3.26521 -3.81184,-3.26521c-2.04636,0 -3.55103,1.26651 -4.01246,3.26521z" class="st6" stroke="null"/>
    <path id="svg_131" d="m67.8307,176.36097c0,-4.41298 3.20997,-7.55946 7.84437,-7.55946c2.90904,0 5.57732,1.40503 6.80113,3.95783l-2.84885,1.52377c-0.84262,-1.38524 -2.24698,-2.29554 -3.89209,-2.29554c-2.52785,0 -4.39365,1.89976 -4.39365,4.3734s1.80561,4.35361 4.29334,4.35361c1.62505,0 3.23003,-0.93009 3.93221,-2.25596l2.84885,1.6425c-1.24386,2.29554 -3.8319,3.79952 -6.86131,3.79952c-4.53408,0.01979 -7.72399,-3.14648 -7.72399,-7.53967l-0.00001,0z" class="st6" stroke="null"/>
    <path id="svg_132" d="m101.45514,177.60768l-11.17471,0c0.44137,1.86018 1.80561,3.32458 4.4739,3.32458c1.64511,0 3.57109,-0.61346 4.83502,-1.48419l1.40436,2.47364c-1.3843,1.00925 -3.69147,1.9987 -6.35975,1.9987c-5.49708,0 -7.92462,-3.72036 -7.92462,-7.55946c0,-4.31404 3.04947,-7.55946 7.60362,-7.55946c4.13284,0 7.26256,2.69133 7.26256,7.26262c0,0.59367 -0.06019,1.06861 -0.12037,1.54355l-0.00001,0.00002zm-11.15465,-2.63196l7.8243,0c-0.30093,-2.01849 -1.80561,-3.26521 -3.81184,-3.26521c-2.04636,0 -3.57109,1.26651 -4.01246,3.26521z" class="st6" stroke="null"/>
    <path id="svg_133" d="m122.44033,176.38076c0,4.27446 -3.12972,7.55946 -7.30268,7.55946c-2.12661,0 -3.63128,-0.98946 -4.69458,-2.25596l0,1.91955l-3.45072,0l0,-20.22452l3.51091,0l0,7.63861c1.0633,-1.24672 2.56798,-2.21639 4.67452,-2.21639c4.13284,0 7.26256,3.30479 7.26256,7.57925l-0.00001,0zm-3.59115,-0.01979c0,-2.39449 -1.66517,-4.3734 -4.23315,-4.3734c-2.58804,0 -4.25321,1.9987 -4.25321,4.3734c0,2.41428 1.66517,4.39319 4.25321,4.39319c2.56798,0 4.23315,-1.97892 4.23315,-4.39319z" class="st6" stroke="null"/>
    <path id="svg_134" d="m141.88071,177.60768l-11.17471,0c0.44137,1.86018 1.80561,3.32458 4.4739,3.32458c1.64511,0 3.57109,-0.61346 4.83502,-1.48419l1.40436,2.47364c-1.3843,1.00925 -3.69147,1.9987 -6.35975,1.9987c-5.49708,0 -7.92462,-3.72036 -7.92462,-7.55946c0,-4.31404 3.04947,-7.55946 7.60362,-7.55946c4.13284,0 7.26256,2.69133 7.26256,7.26262c-0.02006,0.59367 -0.06019,1.06861 -0.12037,1.54355l-0.00001,0.00002zm-11.17471,-2.63196l7.8243,0c-0.30093,-2.01849 -1.80561,-3.26521 -3.81184,-3.26521c-2.02629,0 -3.55103,1.26651 -4.01246,3.26521z" class="st6" stroke="null"/>
    <path id="svg_135" d="m147.39785,169.15771l3.37047,0l0,1.9987c0.92287,-1.62271 2.32723,-2.3747 4.07265,-2.3747c0.54168,0 1.16361,0.07916 1.74542,0.29684l-0.30093,3.32458c-0.56174,-0.1781 -1.16361,-0.29684 -1.7053,-0.29684c-2.02629,0 -3.69147,1.2863 -3.69147,4.45256l0,7.04494l-3.51091,0l0,-14.44608l0.02006,0l0.00001,0z" class="st6" stroke="null"/>
   </g>
  </g>
 </g>
</svg>